<svg width="670" height="352" viewBox="0 0 670 352" fill="none" xmlns="http://www.w3.org/2000/svg">
<ellipse cx="334.358" cy="175.532" rx="143.377" ry="144.352" fill="url(#paint0_linear_863_131)"/>
<g filter="url(#filter0_d_863_131)">
<path d="M343.255 40.2933C377.519 42.4637 409.677 57.6977 433.182 82.8988C456.688 108.1 469.775 141.375 469.775 175.951" stroke="#FFF500" stroke-width="3.73" stroke-linecap="round"/>
</g>
<g filter="url(#filter1_d_863_131)">
<path d="M326.285 311.601C292.02 309.431 259.862 294.197 236.357 268.996C212.851 243.794 199.764 210.52 199.764 175.943" stroke="#FFF500" stroke-width="3.73" stroke-linecap="round"/>
</g>
<g filter="url(#filter2_d_863_131)">
<path d="M469.73 184.963C467.512 219.467 452.319 251.821 427.246 275.441C402.174 299.061 369.106 312.172 334.774 312.111" stroke="#FFF500" stroke-width="3.73" stroke-linecap="round"/>
</g>
<g filter="url(#filter3_d_863_131)">
<path d="M200.309 167.412C202.527 132.908 217.72 100.554 242.793 76.9338C267.865 53.314 300.933 40.2025 335.265 40.2643" stroke="#FFF500" stroke-width="3.73" stroke-linecap="round"/>
</g>
<path d="M343.273 39.9374C377.628 42.1136 409.87 57.388 433.435 82.6533C457.001 107.919 470.119 141.276 470.119 175.937" stroke="white" stroke-width="1.24333" stroke-linecap="round"/>
<path d="M326.274 311.945C291.919 309.769 259.677 294.495 236.112 269.23C212.546 243.964 199.428 210.607 199.428 175.946" stroke="white" stroke-width="1.24333" stroke-linecap="round"/>
<path d="M470.048 185C467.825 219.588 452.595 252.023 427.458 275.703C402.321 299.384 369.167 312.53 334.744 312.468" stroke="white" stroke-width="1.24333" stroke-linecap="round"/>
<path d="M199.956 167.391C202.179 132.803 217.409 100.368 242.546 76.6873C267.683 53.0069 300.837 39.8605 335.26 39.9225" stroke="white" stroke-width="1.24333" stroke-linecap="round"/>
<g filter="url(#filter4_d_863_131)">
<path d="M253.934 84.0844C277.16 63.451 307.323 52.5064 338.282 53.479C369.242 54.4517 398.669 67.2686 420.571 89.3197" stroke="#FFF500" stroke-width="3.73" stroke-linecap="round"/>
</g>
<g filter="url(#filter5_d_863_131)">
<path d="M414.987 267.935C391.759 288.552 361.602 299.484 330.652 298.505C299.702 297.525 270.285 284.709 248.389 262.665" stroke="#FFF500" stroke-width="3.73" stroke-linecap="round"/>
</g>
<g filter="url(#filter6_d_863_131)">
<path d="M426.258 95.0955C446.694 118.518 457.498 148.9 456.47 180.059C455.442 211.217 442.659 240.811 420.724 262.816" stroke="#FFF500" stroke-width="3.73" stroke-linecap="round"/>
</g>
<g filter="url(#filter7_d_863_131)">
<path d="M243.344 256.889C222.907 233.467 212.104 203.084 213.132 171.926C214.16 140.767 226.942 111.173 248.877 89.1679" stroke="#FFF500" stroke-width="3.73" stroke-linecap="round"/>
</g>
<path d="M253.948 84.0198C277.286 63.2869 307.595 52.2894 338.703 53.2667C369.812 54.2441 399.381 67.1229 421.389 89.2805" stroke="white" stroke-width="1.24333" stroke-linecap="round"/>
<path d="M415.758 268.758C392.418 289.474 362.115 300.459 331.016 299.475C299.916 298.491 270.358 285.613 248.356 263.462" stroke="white" stroke-width="1.24333" stroke-linecap="round"/>
<path d="M427.1 95.0938C447.634 118.629 458.49 149.158 457.457 180.467C456.424 211.776 443.58 241.512 421.539 263.624" stroke="white" stroke-width="1.24333" stroke-linecap="round"/>
<path d="M243.26 257.668C222.725 234.133 211.87 203.604 212.903 172.295C213.936 140.985 226.78 111.249 248.82 89.1375" stroke="white" stroke-width="1.24333" stroke-linecap="round"/>
<ellipse cx="334.718" cy="175.991" rx="99.1477" ry="99.7294" fill="#5F5F5F"/>
<g filter="url(#filter8_d_863_131)">
<path d="M211.532 230.715C205.862 231.721 200.456 231.667 195.314 230.555C190.3 229.532 186.032 227.309 182.508 223.885C179.075 220.332 176.813 215.447 175.723 209.23C175.111 205.739 174.942 201.889 175.216 197.679C175.614 190.973 176.994 184.092 179.355 177.038C181.825 169.964 185.017 163.156 188.929 156.614C192.951 150.052 197.523 144.067 202.647 138.66C207.751 133.143 213.191 128.579 218.966 124.968C224.831 121.229 230.872 118.808 237.087 117.705C238.941 117.377 240.878 117.202 242.898 117.181C247.393 117.171 250.897 118.237 253.408 120.378C256.01 122.391 257.588 124.979 258.142 128.142C258.792 131.851 258.243 135.772 256.494 139.907C254.745 144.041 252.205 148.147 248.872 152.224C245.629 156.173 241.948 159.863 237.827 163.293C233.815 166.704 229.772 169.614 225.697 172.024C221.622 174.434 217.914 176.047 214.572 176.865C212.519 177.342 211.378 176.925 211.149 175.617C211.034 174.962 211.246 174.25 211.786 173.479C212.415 172.58 213.375 171.96 214.664 171.619C223.035 169.347 230.491 165.381 237.032 159.723C243.663 153.935 248.272 146.876 250.859 138.544C251.444 136.753 251.812 135.001 251.961 133.288C252.2 131.446 252.186 129.761 251.918 128.234C251.498 125.834 250.435 123.942 248.731 122.557C247.116 121.044 244.619 120.587 241.239 121.187C237.531 121.844 233.371 123.763 228.756 126.943C224.123 130.015 219.379 134.061 214.526 139.083C209.781 144.086 205.225 149.843 200.858 156.354C196.58 162.736 192.888 169.576 189.783 176.875C186.768 184.046 184.746 191.434 183.718 199.039C183.065 203.654 183.064 207.815 183.714 211.524C184.881 218.178 188.031 222.68 193.165 225.031C198.28 227.273 204.491 227.746 211.796 226.45C218.121 225.329 224.854 223.01 231.995 219.494C239.245 215.959 246.077 211.317 252.489 205.568C258.883 199.71 263.921 192.856 267.604 185.005C267.855 184.51 268.198 184.224 268.634 184.147C269.071 184.07 269.49 184.22 269.894 184.599C270.407 184.957 270.538 185.384 270.287 185.878C265.994 194.738 260.57 202.279 254.016 208.503C247.571 214.707 240.623 219.651 233.174 223.334C225.725 227.017 218.511 229.477 211.532 230.715ZM271.296 214.548C270.423 214.703 270.138 214.36 270.441 213.519C270.544 212.826 270.802 211.093 271.216 208.32C271.738 205.528 272.329 202.162 272.987 198.221C273.645 194.28 274.349 190.275 275.097 186.206C275.826 182.028 276.523 178.306 277.187 175.039C276.596 176.156 275.645 177.786 274.334 179.931C273.133 182.056 271.841 184.309 270.46 186.691C269.079 189.073 267.758 191.163 266.5 192.961C266.23 193.346 266.04 193.549 265.931 193.568C265.604 193.626 265.383 193.328 265.269 192.673C265.039 191.364 265.156 190.106 265.619 188.9C267.482 185.42 269.275 182.178 270.997 179.173C272.809 176.04 274.431 173.109 275.864 170.381C274.659 169.92 273.97 169.198 273.798 168.217C273.531 166.689 274.16 165.791 275.687 165.52C276.341 165.404 276.851 165.426 277.216 165.586C277.344 165.676 277.463 165.711 277.572 165.692C277.681 165.672 277.809 165.762 277.956 165.961C278.368 165.1 278.68 164.314 278.892 163.602C279.213 162.87 279.471 162.093 279.664 161.272C279.928 160.212 280.475 158.203 281.306 155.244C282.226 152.157 283.388 148.521 284.79 144.335C286.193 140.15 287.849 135.808 289.758 131.308C291.757 126.679 293.978 122.349 296.419 118.317C298.95 114.156 301.66 110.695 304.549 107.934C307.547 105.153 310.79 103.453 314.279 102.834C314.716 102.756 315.161 102.734 315.617 102.765C316.053 102.688 316.499 102.665 316.954 102.697C319.775 102.759 321.856 103.402 323.195 104.627C324.515 105.742 325.337 107.227 325.662 109.081C325.892 110.39 325.867 111.857 325.59 113.481C325.402 114.976 324.997 116.51 324.373 118.083C322.861 122.287 320.651 126.672 317.741 131.237C314.812 135.693 311.446 140.226 307.645 144.837C303.934 149.319 300.158 153.757 296.318 158.149C292.569 162.413 289.063 166.465 285.801 170.305C284.159 176.332 283.012 181.653 282.359 186.268C281.688 190.773 281.2 194.403 280.895 197.156C281.827 195.416 283.244 192.915 285.145 189.654C287.047 186.392 289.238 182.855 291.717 179.041C294.197 175.227 296.814 171.558 299.569 168.032C302.305 164.398 304.982 161.392 307.601 159.016C310.201 156.53 312.537 155.104 314.608 154.736C317.225 154.272 318.773 155.404 319.251 158.131C319.71 160.749 319.29 163.803 317.991 167.296C316.691 170.788 315.633 173.731 314.816 176.125C313.844 179.559 313.126 182.836 312.661 185.955C312.286 188.946 312.151 191.387 312.258 193.28C312.226 193.736 312.248 194.182 312.324 194.618C312.382 194.946 312.449 195.327 312.525 195.764C313.29 200.127 315.199 202.038 318.252 201.496C319.888 201.206 321.896 199.838 324.278 197.391C326.66 194.944 329.029 192.105 331.386 188.876C333.743 185.646 335.847 182.574 337.697 179.659C339.637 176.615 340.928 174.362 341.571 172.898C341.841 172.513 342.194 172.282 342.63 172.204C343.066 172.127 343.422 172.232 343.698 172.521C343.973 172.81 344.049 173.246 343.927 173.83C343.162 175.878 341.883 178.523 340.09 181.765C338.278 184.898 336.203 188.134 333.865 191.473C331.508 194.703 329.139 197.541 326.757 199.988C325.531 201.33 323.84 202.586 321.684 203.756C319.656 205.015 317.552 205.838 315.371 206.225C313.626 206.534 311.86 206.398 310.071 205.815C308.282 205.233 306.796 203.809 305.612 201.545C305.113 200.621 304.71 199.287 304.404 197.541C304.309 196.996 304.213 196.451 304.118 195.905C304.003 195.251 303.943 194.587 303.937 193.913C303.761 190.345 304.266 186.488 305.45 182.341C306.724 178.066 307.912 174.257 309.012 170.912C309.295 169.962 309.488 169.141 309.592 168.448C309.804 167.735 309.872 167.161 309.796 166.725C309.643 165.852 309.184 165.483 308.421 165.619C307.658 165.754 306.545 166.458 305.081 167.729C303.618 169.001 301.733 171.079 299.428 173.962C297.392 176.46 295.308 179.641 293.175 183.506C291.131 187.243 289.107 191.088 287.102 195.043C285.206 198.978 283.496 202.374 281.974 205.231C280.56 208.069 279.509 209.773 278.823 210.345C278.335 210.769 277.176 211.537 275.347 212.649C273.519 213.76 272.168 214.393 271.296 214.548ZM287.618 162.391C291.463 158.673 295.566 154.177 299.926 148.905C304.267 143.524 308.233 137.928 311.824 132.118C315.505 126.179 318.143 120.706 319.739 115.699C320.608 112.958 320.899 110.77 320.612 109.134C320.287 107.279 319.306 106.497 317.671 106.787C316.908 106.923 316.073 107.295 315.169 107.906C314.245 108.407 313.214 109.265 312.078 110.478C305.767 117.446 300.791 125.302 297.152 134.045C293.494 142.679 290.316 152.128 287.618 162.391ZM389.967 192.995C388.113 193.323 386.292 193.196 384.504 192.614C382.824 192.012 381.392 190.579 380.208 188.315C379.709 187.391 379.307 186.056 379.001 184.311C378.58 181.911 378.439 179.181 378.577 176.12C378.714 173.059 378.983 170.424 379.383 168.216C378.876 168.531 378.013 169.697 376.792 171.713C375.661 173.6 374.216 175.937 372.456 178.724C370.786 181.382 368.852 184.143 366.656 187.007C364.55 189.742 362.267 192.115 359.809 194.126C357.351 196.136 354.813 197.374 352.196 197.838C350.452 198.147 348.512 197.985 346.377 197.351C344.223 196.609 342.403 195.526 340.917 194.102C338.899 192.211 337.689 190.12 337.287 187.829C336.771 184.884 337.217 181.656 338.625 178.144C340.142 174.614 342.224 171.095 344.87 167.589C347.606 163.955 350.562 160.619 353.74 157.581C357.008 154.415 360.134 151.723 363.118 149.507C366.192 147.162 368.718 145.533 370.694 144.62C372.76 143.579 375.156 142.817 377.882 142.333C379.408 142.063 381.028 142 382.74 142.147C384.433 142.184 385.901 142.542 387.144 143.221C388.093 143.503 388.907 143.977 389.586 144.644C390.265 145.311 390.681 146.08 390.834 146.953C390.987 147.826 390.653 148.166 389.833 147.974C388.731 146.82 387.388 146.215 385.804 146.158C384.31 145.973 382.8 146.016 381.273 146.287C376.912 147.06 372.362 149.329 367.626 153.094C362.889 156.858 358.783 161.017 355.309 165.569C354.192 166.892 352.727 169.12 350.915 172.253C349.194 175.258 347.683 178.506 346.384 181.998C345.085 185.49 344.665 188.545 345.124 191.163C345.372 192.581 345.974 193.768 346.928 194.723C347.498 195.409 348.274 195.665 349.255 195.491C350.782 195.221 352.656 194.045 354.877 191.964C357.207 189.863 359.534 187.426 361.859 184.652C364.164 181.769 366.216 179.043 368.014 176.475C369.922 173.887 371.28 172.015 372.089 170.86C372.539 170.218 373.383 168.943 374.623 167.036C375.953 165.001 377.372 162.837 378.882 160.545C380.391 158.253 381.731 156.272 382.899 154.602C384.177 152.914 385.035 152.031 385.471 151.953C386.016 151.857 386.917 151.865 388.174 151.98C389.52 151.966 390.678 152.154 391.646 152.545C392.614 152.936 392.901 153.616 392.509 154.585C390.401 159.233 388.876 164.002 387.934 168.893C387.083 173.655 386.723 177.374 386.855 180.05C386.822 180.506 386.844 180.952 386.92 181.388C386.978 181.715 387.045 182.097 387.121 182.533C387.886 186.897 389.795 188.807 392.848 188.266C394.484 187.976 396.493 186.607 398.874 184.16C401.256 181.714 403.626 178.875 405.983 175.645C408.34 172.416 410.443 169.343 412.293 166.428C414.233 163.385 415.524 161.131 416.167 159.668C416.437 159.283 416.736 159.061 417.063 159.003C417.499 158.926 417.919 159.076 418.322 159.454C418.707 159.724 418.783 160.16 418.552 160.763C417.697 162.939 416.363 165.594 414.551 168.727C412.739 171.86 410.655 175.042 408.298 178.271C405.941 181.501 403.572 184.34 401.19 186.786C399.963 188.129 398.327 189.375 396.28 190.525C394.252 191.785 392.148 192.608 389.967 192.995ZM440.094 184.441C438.24 184.77 436.528 184.624 434.958 184.003C433.406 183.491 432.157 182.138 431.211 179.944C430.673 178.802 430.299 177.631 430.089 176.431C429.515 173.159 429.779 169.85 430.879 166.506C432.069 163.033 433.579 159.785 435.41 156.761C437.222 153.628 438.783 150.989 440.094 148.845C440.813 147.817 441.594 146.498 442.436 144.887C443.386 143.256 443.738 141.731 443.489 140.313C443.336 139.441 442.756 138.7 441.75 138.091C440.725 137.373 439.039 137.054 436.692 137.133C435.345 137.147 434.062 137.205 432.844 137.309C431.715 137.284 430.551 137.378 429.352 137.591C427.025 142.278 424.763 147.009 422.564 151.785C420.456 156.433 418.12 161.065 415.556 165.681C414.927 166.58 414.339 167.078 413.794 167.174C413.14 167.29 412.755 167.021 412.641 166.367C412.526 165.712 412.738 165 413.278 164.229C417.904 155.986 421.626 147.396 424.445 138.461C423.9 138.558 423.082 138.703 421.991 138.896C420.882 138.981 419.99 139.026 419.317 139.033C418.515 138.951 417.858 138.73 417.346 138.371C416.833 138.012 416.539 137.614 416.462 137.178C416.347 136.523 416.553 136.093 417.079 135.887C418.42 135.2 419.832 134.275 421.315 133.112C422.797 131.949 424.123 130.533 425.292 128.864C426.551 127.066 427.691 125.233 428.713 123.364C429.715 121.387 430.522 119.894 431.132 118.886C431.8 118.206 432.57 117.788 433.442 117.633C433.987 117.537 434.507 117.613 435 117.863C435.603 118.094 435.961 118.536 436.076 119.191C436.21 119.954 436.055 120.994 435.611 122.31C434.897 124.011 434.103 125.895 433.229 127.962C432.464 130.01 431.724 131.884 431.01 133.585C432.992 133.346 434.974 133.107 436.956 132.868C438.938 132.629 440.965 132.326 443.036 131.959C444.127 131.765 445.163 131.581 446.144 131.407C447.215 131.105 448.296 130.857 449.386 130.664C452.658 130.083 454.437 130.611 454.723 132.248C454.915 133.338 454.554 134.808 453.641 136.657C452.819 138.378 451.752 140.31 450.442 142.454C447.48 147.366 445.102 152.399 443.307 157.554C441.512 162.708 440.399 166.617 439.966 169.281C439.553 172.053 439.461 174.094 439.69 175.403C440.149 178.021 441.414 179.146 443.486 178.779C445.34 178.45 447.413 177.126 449.705 174.808C452.105 172.47 454.494 169.741 456.87 166.62C459.227 163.39 461.331 160.318 463.181 157.403C465.012 154.379 466.303 152.125 467.055 150.642C467.216 150.277 467.514 150.055 467.95 149.978C468.386 149.9 468.806 150.051 469.21 150.429C469.594 150.698 469.671 151.134 469.439 151.738C468.565 153.805 467.231 156.46 465.439 159.702C463.627 162.835 461.543 166.016 459.186 169.246C456.829 172.476 454.459 175.314 452.077 177.761C450.851 179.103 449.06 180.433 446.705 181.75C444.479 183.158 442.275 184.055 440.094 184.441ZM477.893 177.4C475.93 177.748 474.055 177.631 472.266 177.048C470.587 176.446 469.155 175.013 467.971 172.749C467.805 172.441 467.638 172.133 467.472 171.825C467.414 171.498 467.348 171.116 467.271 170.68C466.889 168.498 466.901 165.684 467.309 162.238C467.717 158.792 468.362 155.416 469.244 152.11C468.742 153.099 468.17 154.325 467.528 155.788C466.866 157.143 465.889 158.947 464.597 161.201C464.238 161.714 463.785 162.019 463.24 162.116C462.477 162.252 462.019 161.883 461.866 161.01C461.751 160.356 461.873 159.772 462.233 159.258C464.437 155.156 466.381 151.493 468.065 148.27C469.857 145.028 471.127 142.329 471.873 140.172C471.835 139.954 472.047 139.241 472.51 138.034C472.954 136.718 473.54 134.927 474.267 132.662C473.413 132.925 472.669 133.17 472.034 133.395C471.489 133.492 470.998 133.579 470.562 133.656C469.799 133.791 469.087 133.58 468.427 133.022C467.767 132.465 467.569 131.656 467.834 130.597C468.111 128.973 469.158 127.888 470.973 127.341C472.788 126.794 474.395 126.34 475.794 125.98C475.864 125.742 476.063 125.595 476.391 125.537C477.278 122.905 478.121 120.337 478.919 117.834C479.717 115.331 480.364 113.248 480.859 111.585C481.464 109.903 481.757 109.008 481.738 108.899C483.306 105.022 484.322 102.479 484.785 101.273C485.229 99.9568 485.977 99.093 487.03 98.6815C488.21 98.3597 489.473 98.1918 490.82 98.1779C492.276 98.1447 493.289 98.4711 493.859 99.1573C494.262 99.5356 494.522 100.052 494.636 100.706C494.808 101.688 494.762 102.709 494.498 103.768C494.215 104.718 493.903 105.504 493.563 106.127C493.26 106.968 492.756 107.619 492.05 108.082C491.434 108.416 490.949 109.177 490.595 110.365C489.868 112.63 489.061 115.079 488.173 117.711C487.285 120.343 486.324 122.875 485.289 125.308L487.223 124.796C489.801 124.114 492.207 123.406 494.44 122.673C496.781 121.92 499.488 121.328 502.56 120.895C503.105 120.799 503.67 120.811 504.253 120.932C504.926 120.925 505.292 121.086 505.349 121.413C505.426 121.849 504.113 122.701 501.412 123.967C500.398 124.597 498.085 125.513 494.474 126.716C490.952 127.79 487.321 128.884 483.581 129.997C482.854 132.263 482.179 134.183 481.555 135.755C480.912 137.219 480.484 138.307 480.272 139.02C478.753 144.463 477.375 149.431 476.139 153.924C474.993 158.288 474.54 161.799 474.781 164.456C474.748 164.911 474.77 165.357 474.847 165.794C474.904 166.121 474.971 166.503 475.047 166.939C475.812 171.302 477.612 173.232 480.447 172.729C482.192 172.42 484.265 171.096 486.666 168.758C489.048 166.312 491.417 163.473 493.774 160.243C496.112 156.905 498.206 153.778 500.056 150.863C501.996 147.819 503.287 145.566 503.93 144.102C504.2 143.717 504.498 143.495 504.825 143.437C505.262 143.36 505.617 143.466 505.893 143.754C506.277 144.023 506.408 144.45 506.286 145.034C505.629 147.063 504.35 149.707 502.449 152.969C500.637 156.102 498.508 159.348 496.061 162.706C493.704 165.936 491.334 168.774 488.952 171.221C487.726 172.563 486.09 173.809 484.043 174.96C482.124 176.2 480.074 177.013 477.893 177.4Z" fill="#FF00A1"/>
</g>
<g filter="url(#filter9_d_863_131)">
<path d="M214.298 228.719C208.741 229.705 203.443 229.653 198.404 228.562C193.491 227.56 189.307 225.381 185.854 222.026C182.49 218.544 180.273 213.757 179.205 207.664C178.605 204.243 178.44 200.47 178.708 196.344C179.098 189.772 180.451 183.029 182.765 176.116C185.185 169.183 188.313 162.511 192.147 156.1C196.088 149.669 200.569 143.805 205.59 138.505C210.592 133.099 215.923 128.627 221.583 125.088C227.331 121.423 233.251 119.05 239.342 117.97C241.158 117.648 243.056 117.476 245.036 117.456C249.442 117.446 252.875 118.491 255.336 120.589C257.886 122.562 259.432 125.098 259.976 128.198C260.613 131.833 260.074 135.676 258.361 139.727C256.647 143.778 254.157 147.802 250.891 151.798C247.713 155.669 244.105 159.284 240.067 162.646C236.135 165.989 232.173 168.841 228.179 171.202C224.186 173.564 220.552 175.145 217.277 175.947C215.265 176.414 214.147 176.006 213.922 174.723C213.81 174.081 214.018 173.383 214.547 172.628C215.163 171.747 216.104 171.14 217.367 170.805C225.571 168.579 232.878 164.693 239.288 159.147C245.786 153.475 250.303 146.557 252.838 138.392C253.412 136.637 253.772 134.92 253.918 133.24C254.153 131.435 254.139 129.784 253.876 128.288C253.464 125.936 252.423 124.082 250.752 122.725C249.17 121.242 246.723 120.794 243.41 121.382C239.777 122.026 235.7 123.907 231.178 127.023C226.637 130.033 221.988 133.999 217.232 138.92C212.582 143.823 208.117 149.465 203.837 155.845C199.644 162.1 196.027 168.804 192.984 175.957C190.028 182.984 188.047 190.224 187.04 197.677C186.4 202.199 186.399 206.278 187.036 209.912C188.179 216.433 191.267 220.845 196.298 223.149C201.311 225.346 207.397 225.81 214.557 224.54C220.755 223.441 227.353 221.168 234.351 217.723C241.457 214.258 248.152 209.709 254.436 204.075C260.702 198.335 265.639 191.617 269.248 183.923C269.494 183.439 269.831 183.159 270.258 183.083C270.685 183.007 271.097 183.155 271.492 183.525C271.995 183.877 272.123 184.295 271.878 184.78C267.67 193.462 262.355 200.852 255.932 206.951C249.615 213.032 242.807 217.876 235.507 221.486C228.206 225.095 221.137 227.506 214.298 228.719ZM272.866 212.876C272.011 213.027 271.732 212.691 272.028 211.867C272.129 211.188 272.383 209.49 272.788 206.772C273.3 204.036 273.878 200.737 274.524 196.875C275.169 193.013 275.858 189.089 276.591 185.101C277.306 181.006 277.988 177.358 278.639 174.156C278.06 175.251 277.128 176.849 275.844 178.951C274.666 181.033 273.401 183.242 272.047 185.576C270.693 187.91 269.4 189.959 268.166 191.72C267.902 192.098 267.716 192.296 267.609 192.315C267.288 192.372 267.072 192.08 266.96 191.438C266.735 190.156 266.849 188.923 267.303 187.74C269.129 184.33 270.886 181.153 272.573 178.208C274.349 175.138 275.939 172.266 277.343 169.592C276.162 169.14 275.487 168.433 275.319 167.471C275.056 165.974 275.673 165.093 277.169 164.828C277.81 164.714 278.31 164.736 278.668 164.893C278.794 164.981 278.91 165.015 279.017 164.996C279.124 164.977 279.249 165.065 279.394 165.26C279.797 164.417 280.102 163.647 280.31 162.948C280.625 162.231 280.878 161.47 281.067 160.665C281.326 159.627 281.862 157.658 282.676 154.758C283.578 151.732 284.716 148.169 286.091 144.067C287.465 139.966 289.088 135.71 290.959 131.3C292.919 126.764 295.094 122.521 297.487 118.569C299.967 114.492 302.623 111.1 305.454 108.394C308.392 105.668 311.571 104.002 314.99 103.396C315.418 103.32 315.854 103.298 316.301 103.329C316.728 103.253 317.165 103.23 317.611 103.262C320.376 103.322 322.415 103.953 323.727 105.153C325.021 106.246 325.827 107.701 326.145 109.518C326.37 110.801 326.346 112.238 326.074 113.83C325.891 115.295 325.493 116.798 324.882 118.34C323.401 122.46 321.234 126.757 318.382 131.231C315.512 135.598 312.214 140.04 308.488 144.559C304.851 148.951 301.151 153.3 297.388 157.605C293.714 161.784 290.278 165.755 287.081 169.518C285.472 175.425 284.348 180.639 283.709 185.161C283.05 189.577 282.572 193.133 282.274 195.832C283.187 194.126 284.575 191.676 286.439 188.48C288.302 185.283 290.449 181.816 292.879 178.079C295.309 174.341 297.874 170.745 300.574 167.29C303.255 163.729 305.879 160.783 308.445 158.454C310.993 156.018 313.282 154.62 315.313 154.26C317.877 153.805 319.394 154.914 319.862 157.587C320.312 160.152 319.9 163.146 318.627 166.568C317.354 169.99 316.317 172.875 315.516 175.221C314.564 178.587 313.86 181.798 313.404 184.854C313.036 187.785 312.905 190.178 313.01 192.034C312.978 192.48 312.999 192.917 313.074 193.345C313.13 193.665 313.196 194.04 313.271 194.467C314.02 198.743 315.891 200.616 318.883 200.085C320.486 199.801 322.455 198.46 324.789 196.062C327.123 193.664 329.445 190.882 331.755 187.717C334.065 184.552 336.126 181.541 337.939 178.684C339.841 175.702 341.106 173.493 341.736 172.059C342 171.681 342.346 171.455 342.774 171.379C343.201 171.303 343.55 171.406 343.82 171.689C344.09 171.972 344.165 172.4 344.045 172.972C343.295 174.979 342.041 177.571 340.284 180.748C338.509 183.819 336.476 186.99 334.184 190.262C331.875 193.427 329.553 196.209 327.218 198.607C326.017 199.922 324.359 201.153 322.246 202.299C320.259 203.533 318.197 204.34 316.06 204.719C314.35 205.022 312.619 204.888 310.866 204.318C309.113 203.747 307.657 202.352 306.496 200.133C306.007 199.227 305.613 197.92 305.313 196.209C305.219 195.675 305.125 195.14 305.032 194.606C304.919 193.964 304.86 193.314 304.855 192.653C304.682 189.157 305.177 185.377 306.337 181.313C307.586 177.124 308.75 173.39 309.828 170.113C310.105 169.182 310.295 168.377 310.396 167.697C310.604 166.999 310.671 166.436 310.596 166.009C310.446 165.154 309.997 164.792 309.249 164.925C308.501 165.058 307.41 165.747 305.976 166.993C304.541 168.24 302.695 170.276 300.435 173.101C298.441 175.549 296.398 178.667 294.307 182.455C292.305 186.117 290.321 189.885 288.356 193.761C286.498 197.617 284.823 200.946 283.33 203.745C281.945 206.526 280.915 208.197 280.242 208.757C279.764 209.172 278.629 209.925 276.837 211.014C275.045 212.104 273.721 212.724 272.866 212.876ZM288.862 161.762C292.63 158.118 296.651 153.712 300.924 148.546C305.178 143.272 309.065 137.788 312.584 132.094C316.191 126.274 318.777 120.91 320.341 116.004C321.192 113.318 321.477 111.173 321.196 109.57C320.877 107.752 319.917 106.986 318.314 107.27C317.566 107.403 316.748 107.768 315.862 108.366C314.956 108.858 313.946 109.698 312.833 110.888C306.648 117.716 301.772 125.414 298.206 133.983C294.621 142.444 291.506 151.704 288.862 161.762ZM389.164 191.753C387.347 192.075 385.563 191.951 383.81 191.38C382.164 190.79 380.761 189.386 379.6 187.167C379.111 186.262 378.717 184.954 378.417 183.244C378.005 180.892 377.866 178.216 378.001 175.216C378.136 172.216 378.4 169.634 378.792 167.471C378.295 167.779 377.449 168.921 376.253 170.897C375.144 172.747 373.728 175.037 372.003 177.768C370.366 180.373 368.472 183.079 366.319 185.885C364.255 188.566 362.018 190.891 359.609 192.862C357.2 194.832 354.713 196.045 352.149 196.5C350.439 196.803 348.538 196.644 346.446 196.023C344.335 195.295 342.551 194.234 341.095 192.839C339.117 190.985 337.931 188.936 337.538 186.691C337.032 183.805 337.469 180.641 338.849 177.2C340.336 173.74 342.376 170.292 344.969 166.856C347.65 163.295 350.547 160.025 353.662 157.048C356.864 153.945 359.927 151.307 362.852 149.135C365.865 146.838 368.339 145.241 370.276 144.347C372.301 143.326 374.649 142.579 377.32 142.105C378.816 141.84 380.403 141.779 382.081 141.922C383.74 141.959 385.179 142.31 386.398 142.975C387.327 143.251 388.125 143.716 388.791 144.37C389.456 145.023 389.864 145.777 390.014 146.633C390.164 147.488 389.836 147.821 389.032 147.633C387.952 146.502 386.636 145.909 385.084 145.854C383.62 145.672 382.14 145.714 380.644 145.98C376.37 146.738 371.911 148.961 367.269 152.651C362.627 156.34 358.604 160.415 355.199 164.876C354.104 166.173 352.669 168.356 350.893 171.427C349.206 174.371 347.726 177.555 346.453 180.977C345.179 184.399 344.768 187.393 345.217 189.958C345.461 191.348 346.05 192.511 346.986 193.447C347.544 194.12 348.305 194.371 349.266 194.2C350.762 193.935 352.599 192.783 354.775 190.743C357.059 188.685 359.34 186.296 361.618 183.578C363.877 180.752 365.888 178.081 367.65 175.564C369.519 173.028 370.851 171.194 371.644 170.061C372.084 169.432 372.912 168.183 374.127 166.314C375.43 164.319 376.821 162.199 378.3 159.953C379.78 157.706 381.092 155.765 382.238 154.129C383.49 152.474 384.33 151.609 384.758 151.533C385.292 151.438 386.175 151.447 387.407 151.559C388.726 151.545 389.86 151.73 390.809 152.113C391.758 152.496 392.04 153.162 391.655 154.112C389.589 158.667 388.095 163.341 387.172 168.134C386.337 172.801 385.985 176.445 386.114 179.068C386.082 179.514 386.103 179.951 386.178 180.379C386.235 180.7 386.3 181.074 386.375 181.501C387.125 185.777 388.995 187.65 391.988 187.119C393.59 186.835 395.559 185.494 397.893 183.096C400.227 180.698 402.549 177.916 404.859 174.751C407.169 171.586 409.23 168.575 411.044 165.718C412.945 162.736 414.21 160.528 414.84 159.093C415.105 158.716 415.397 158.498 415.718 158.442C416.145 158.366 416.557 158.513 416.952 158.884C417.329 159.148 417.404 159.575 417.177 160.167C416.339 162.299 415.032 164.901 413.256 167.971C411.481 171.042 409.438 174.159 407.128 177.325C404.818 180.49 402.496 183.271 400.162 185.669C398.96 186.985 397.357 188.206 395.351 189.333C393.363 190.568 391.301 191.374 389.164 191.753ZM438.288 183.371C436.472 183.693 434.794 183.55 433.255 182.941C431.735 182.439 430.511 181.113 429.583 178.963C429.056 177.844 428.69 176.697 428.483 175.521C427.921 172.314 428.179 169.072 429.257 165.795C430.424 162.391 431.904 159.208 433.698 156.244C435.474 153.174 437.004 150.588 438.288 148.487C438.993 147.48 439.758 146.187 440.583 144.608C441.515 143.009 441.859 141.516 441.616 140.126C441.466 139.271 440.898 138.545 439.912 137.948C438.907 137.245 437.254 136.931 434.954 137.009C433.634 137.022 432.377 137.08 431.183 137.182C430.077 137.157 428.936 137.249 427.761 137.458C425.481 142.051 423.264 146.687 421.109 151.368C419.043 155.923 416.754 160.462 414.241 164.986C413.624 165.867 413.049 166.355 412.515 166.45C411.873 166.563 411.497 166.299 411.384 165.658C411.272 165.017 411.48 164.318 412.009 163.563C416.542 155.485 420.19 147.067 422.952 138.311C422.418 138.406 421.616 138.548 420.548 138.737C419.46 138.82 418.587 138.865 417.927 138.871C417.141 138.79 416.498 138.574 415.995 138.222C415.493 137.87 415.204 137.481 415.129 137.053C415.017 136.412 415.218 135.99 415.734 135.788C417.048 135.114 418.432 134.208 419.885 133.068C421.338 131.929 422.637 130.541 423.782 128.905C425.016 127.143 426.133 125.347 427.135 123.516C428.117 121.578 428.907 120.115 429.506 119.127C430.16 118.46 430.915 118.051 431.769 117.899C432.304 117.804 432.813 117.88 433.296 118.124C433.887 118.35 434.238 118.784 434.351 119.425C434.482 120.174 434.33 121.193 433.895 122.482C433.196 124.149 432.417 125.996 431.561 128.021C430.811 130.028 430.086 131.865 429.386 133.532C431.329 133.298 433.271 133.064 435.213 132.83C437.155 132.595 439.141 132.298 441.172 131.938C442.24 131.749 443.256 131.568 444.217 131.398C445.267 131.101 446.326 130.858 447.395 130.669C450.601 130.1 452.344 130.618 452.625 132.221C452.813 133.29 452.459 134.731 451.565 136.543C450.759 138.229 449.713 140.123 448.429 142.224C445.527 147.037 443.196 151.97 441.437 157.021C439.678 162.073 438.587 165.903 438.163 168.514C437.758 171.231 437.668 173.231 437.893 174.514C438.342 177.079 439.582 178.182 441.613 177.822C443.429 177.5 445.461 176.202 447.707 173.93C450.06 171.639 452.4 168.965 454.729 165.906C457.039 162.741 459.1 159.73 460.913 156.874C462.708 153.91 463.973 151.702 464.71 150.248C464.868 149.89 465.16 149.672 465.588 149.597C466.015 149.521 466.426 149.668 466.822 150.039C467.199 150.303 467.274 150.73 467.047 151.322C466.19 153.348 464.883 155.949 463.126 159.126C461.351 162.197 459.308 165.315 456.998 168.48C454.688 171.645 452.366 174.427 450.032 176.824C448.83 178.14 447.075 179.443 444.768 180.734C442.585 182.113 440.426 182.992 438.288 183.371ZM475.332 176.471C473.408 176.812 471.57 176.697 469.817 176.126C468.171 175.536 466.768 174.132 465.608 171.913C465.445 171.611 465.282 171.309 465.119 171.007C465.062 170.687 464.997 170.313 464.922 169.885C464.547 167.747 464.559 164.989 464.959 161.612C465.359 158.234 465.991 154.926 466.855 151.686C466.364 152.655 465.803 153.857 465.173 155.291C464.524 156.619 463.567 158.387 462.302 160.595C461.949 161.099 461.506 161.398 460.972 161.492C460.224 161.625 459.775 161.264 459.625 160.409C459.512 159.767 459.632 159.195 459.985 158.692C462.145 154.671 464.05 151.082 465.7 147.923C467.456 144.746 468.701 142.101 469.432 139.987C469.394 139.773 469.602 139.075 470.056 137.892C470.491 136.603 471.065 134.848 471.778 132.627C470.941 132.886 470.212 133.125 469.59 133.346C469.055 133.441 468.575 133.526 468.147 133.602C467.399 133.734 466.702 133.527 466.055 132.981C465.408 132.434 465.214 131.642 465.473 130.604C465.745 129.013 466.771 127.949 468.55 127.413C470.329 126.877 471.904 126.432 473.274 126.079C473.343 125.846 473.538 125.702 473.859 125.645C474.729 123.066 475.555 120.549 476.337 118.096C477.119 115.643 477.753 113.601 478.238 111.972C478.831 110.324 479.118 109.446 479.099 109.34C480.637 105.54 481.632 103.049 482.086 101.866C482.521 100.576 483.254 99.7299 484.285 99.3265C485.442 99.0112 486.68 98.8467 488 98.833C489.427 98.8004 490.419 99.1204 490.978 99.7929C491.373 100.164 491.627 100.67 491.74 101.311C491.908 102.273 491.863 103.273 491.605 104.311C491.327 105.242 491.021 106.013 490.688 106.623C490.391 107.447 489.897 108.086 489.206 108.539C488.602 108.867 488.127 109.612 487.78 110.776C487.067 112.996 486.276 115.396 485.406 117.975C484.536 120.555 483.594 123.036 482.579 125.421L484.475 124.919C487.002 124.251 489.359 123.557 491.547 122.838C493.842 122.101 496.494 121.52 499.505 121.096C500.04 121.001 500.593 121.013 501.164 121.132C501.824 121.126 502.182 121.283 502.238 121.603C502.313 122.031 501.027 122.865 498.38 124.106C497.387 124.723 495.12 125.621 491.58 126.8C488.129 127.853 484.571 128.925 480.906 130.016C480.193 132.237 479.531 134.118 478.92 135.659C478.29 137.093 477.871 138.16 477.663 138.858C476.174 144.192 474.824 149.061 473.612 153.464C472.489 157.741 472.045 161.182 472.281 163.785C472.25 164.232 472.271 164.669 472.346 165.096C472.402 165.417 472.468 165.791 472.543 166.219C473.292 170.495 475.056 172.386 477.835 171.893C479.544 171.59 481.576 170.293 483.929 168.002C486.263 165.604 488.585 162.822 490.895 159.657C493.186 156.385 495.238 153.321 497.051 150.464C498.952 147.482 500.218 145.273 500.848 143.839C501.112 143.461 501.405 143.244 501.725 143.187C502.153 143.112 502.501 143.215 502.771 143.498C503.148 143.762 503.276 144.18 503.156 144.752C502.513 146.74 501.26 149.332 499.396 152.528C497.62 155.599 495.534 158.779 493.136 162.07C490.826 165.236 488.504 168.017 486.17 170.415C484.968 171.731 483.364 172.952 481.358 174.079C479.478 175.294 477.469 176.092 475.332 176.471Z" fill="white" fill-opacity="0.79" shape-rendering="crispEdges"/>
</g>
<path d="M215.624 227.219C209.954 228.225 204.548 228.172 199.406 227.059C194.392 226.036 190.124 223.813 186.6 220.389C183.167 216.837 180.905 211.952 179.815 205.734C179.203 202.244 179.034 198.393 179.308 194.184C179.706 187.477 181.086 180.597 183.447 173.542C185.917 166.468 189.109 159.66 193.021 153.118C197.043 146.556 201.615 140.572 206.738 135.164C211.843 129.648 217.282 125.084 223.058 121.473C228.923 117.733 234.964 115.312 241.179 114.21C243.033 113.881 244.969 113.706 246.99 113.685C251.485 113.675 254.988 114.741 257.5 116.882C260.102 118.895 261.68 121.483 262.234 124.647C262.884 128.355 262.335 132.277 260.586 136.411C258.837 140.545 256.297 144.651 252.964 148.729C249.721 152.678 246.039 156.368 241.919 159.798C237.907 163.208 233.864 166.119 229.789 168.528C225.714 170.938 222.006 172.552 218.664 173.37C216.611 173.846 215.47 173.43 215.241 172.121C215.126 171.467 215.338 170.754 215.878 169.984C216.507 169.085 217.467 168.465 218.756 168.123C227.127 165.851 234.583 161.886 241.124 156.227C247.755 150.44 252.364 143.38 254.951 135.049C255.536 133.258 255.904 131.505 256.053 129.792C256.292 127.95 256.278 126.265 256.01 124.738C255.59 122.339 254.527 120.446 252.823 119.062C251.208 117.548 248.711 117.092 245.331 117.691C241.623 118.349 237.463 120.268 232.848 123.448C228.215 126.519 223.471 130.566 218.618 135.588C213.873 140.591 209.317 146.348 204.949 152.858C200.672 159.24 196.98 166.081 193.875 173.38C190.859 180.55 188.838 187.938 187.81 195.544C187.157 200.158 187.156 204.32 187.806 208.028C188.973 214.682 192.123 219.185 197.257 221.536C202.372 223.778 208.583 224.251 215.888 222.955C222.213 221.833 228.945 219.514 236.087 215.998C243.337 212.463 250.169 207.821 256.581 202.073C262.975 196.215 268.013 189.36 271.696 181.509C271.947 181.015 272.29 180.729 272.726 180.652C273.162 180.574 273.582 180.725 273.986 181.103C274.499 181.462 274.63 181.889 274.379 182.383C270.086 191.242 264.662 198.784 258.108 205.007C251.662 211.212 244.715 216.155 237.266 219.838C229.816 223.521 222.603 225.982 215.624 227.219ZM275.388 211.053C274.515 211.207 274.23 210.864 274.533 210.023C274.636 209.33 274.894 207.597 275.308 204.825C275.83 202.033 276.421 198.666 277.079 194.726C277.737 190.785 278.441 186.78 279.189 182.711C279.918 178.533 280.615 174.81 281.279 171.543C280.687 172.66 279.737 174.291 278.426 176.435C277.225 178.56 275.933 180.814 274.552 183.196C273.17 185.578 271.85 187.668 270.591 189.465C270.322 189.851 270.132 190.053 270.023 190.072C269.696 190.13 269.475 189.832 269.361 189.178C269.131 187.869 269.248 186.611 269.711 185.404C271.574 181.924 273.367 178.682 275.089 175.678C276.901 172.544 278.523 169.614 279.956 166.885C278.751 166.424 278.062 165.703 277.89 164.721C277.623 163.194 278.252 162.295 279.779 162.024C280.433 161.908 280.943 161.93 281.308 162.09C281.436 162.18 281.555 162.215 281.664 162.196C281.773 162.177 281.901 162.266 282.048 162.465C282.46 161.605 282.771 160.819 282.984 160.106C283.305 159.374 283.563 158.598 283.756 157.776C284.02 156.717 284.567 154.708 285.398 151.749C286.318 148.661 287.479 145.025 288.882 140.84C290.284 136.655 291.94 132.312 293.85 127.812C295.849 123.184 298.07 118.853 300.511 114.821C303.042 110.661 305.752 107.2 308.641 104.438C311.639 101.657 314.882 99.957 318.371 99.3382C318.808 99.2608 319.253 99.238 319.709 99.2697C320.145 99.1923 320.59 99.1695 321.046 99.2012C323.867 99.2632 325.948 99.9064 327.287 101.131C328.606 102.247 329.429 103.732 329.754 105.586C329.983 106.895 329.959 108.361 329.682 109.985C329.494 111.48 329.089 113.014 328.465 114.587C326.953 118.792 324.743 123.176 321.833 127.741C318.904 132.197 315.538 136.731 311.737 141.341C308.026 145.824 304.25 150.261 300.41 154.653C296.661 158.918 293.155 162.97 289.893 166.81C288.251 172.837 287.104 178.158 286.451 182.772C285.78 187.278 285.291 190.907 284.987 193.66C285.919 191.921 287.336 189.42 289.237 186.158C291.139 182.897 293.33 179.359 295.809 175.545C298.289 171.732 300.906 168.062 303.661 164.537C306.396 160.902 309.074 157.897 311.693 155.52C314.293 153.035 316.629 151.608 318.7 151.241C321.317 150.777 322.865 151.908 323.343 154.635C323.802 157.253 323.382 160.308 322.083 163.8C320.783 167.292 319.725 170.235 318.908 172.629C317.936 176.064 317.218 179.34 316.753 182.459C316.377 185.45 316.243 187.892 316.35 189.785C316.318 190.241 316.34 190.687 316.416 191.123C316.474 191.45 316.541 191.832 316.617 192.268C317.382 196.631 319.291 198.542 322.344 198.001C323.98 197.711 325.988 196.342 328.37 193.895C330.752 191.448 333.121 188.61 335.478 185.38C337.835 182.15 339.939 179.078 341.789 176.163C343.729 173.12 345.02 170.866 345.663 169.403C345.933 169.017 346.286 168.786 346.722 168.709C347.158 168.631 347.514 168.737 347.789 169.025C348.065 169.314 348.141 169.75 348.019 170.334C347.254 172.382 345.975 175.027 344.182 178.269C342.37 181.402 340.295 184.638 337.957 187.977C335.6 191.207 333.231 194.045 330.849 196.492C329.623 197.834 327.932 199.09 325.776 200.26C323.748 201.519 321.644 202.343 319.463 202.729C317.718 203.039 315.951 202.902 314.163 202.32C312.374 201.737 310.888 200.314 309.704 198.049C309.205 197.126 308.802 195.791 308.496 194.046C308.401 193.5 308.305 192.955 308.21 192.41C308.095 191.755 308.035 191.091 308.029 190.417C307.853 186.849 308.358 182.992 309.542 178.846C310.816 174.571 312.004 170.761 313.104 167.417C313.387 166.467 313.58 165.645 313.684 164.952C313.896 164.24 313.964 163.665 313.887 163.229C313.734 162.356 313.276 161.988 312.513 162.123C311.75 162.258 310.636 162.962 309.173 164.234C307.709 165.506 305.825 167.583 303.52 170.466C301.484 172.964 299.4 176.146 297.266 180.011C295.223 183.747 293.199 187.593 291.194 191.547C289.298 195.483 287.588 198.879 286.065 201.736C284.652 204.573 283.601 206.278 282.914 206.85C282.427 207.274 281.268 208.041 279.439 209.153C277.611 210.265 276.26 210.898 275.388 211.053ZM291.71 158.896C295.555 155.177 299.658 150.682 304.018 145.41C308.359 140.029 312.325 134.433 315.916 128.622C319.597 122.683 322.235 117.21 323.831 112.204C324.7 109.463 324.991 107.274 324.704 105.638C324.379 103.784 323.398 103.002 321.763 103.292C320.999 103.427 320.165 103.8 319.261 104.41C318.337 104.912 317.306 105.769 316.17 106.983C309.859 113.951 304.883 121.806 301.244 130.549C297.586 139.184 294.408 148.632 291.71 158.896ZM394.059 189.499C392.205 189.828 390.384 189.701 388.595 189.118C386.916 188.516 385.484 187.083 384.3 184.819C383.801 183.895 383.398 182.561 383.092 180.816C382.672 178.416 382.53 175.685 382.668 172.624C382.806 169.563 383.075 166.929 383.475 164.721C382.968 165.036 382.105 166.201 380.884 168.217C379.753 170.105 378.308 172.442 376.548 175.228C374.877 177.886 372.944 180.647 370.748 183.511C368.642 186.247 366.359 188.62 363.901 190.63C361.443 192.641 358.905 193.878 356.288 194.342C354.543 194.652 352.604 194.49 350.469 193.856C348.315 193.113 346.495 192.03 345.009 190.607C342.991 188.715 341.781 186.624 341.379 184.334C340.863 181.388 341.309 178.16 342.717 174.649C344.234 171.118 346.316 167.6 348.962 164.094C351.698 160.459 354.654 157.123 357.832 154.085C361.1 150.919 364.225 148.228 367.21 146.011C370.284 143.667 372.809 142.038 374.786 141.125C376.852 140.084 379.248 139.321 381.974 138.838C383.5 138.567 385.12 138.505 386.832 138.651C388.525 138.688 389.993 139.046 391.236 139.726C392.185 140.007 392.999 140.481 393.678 141.148C394.357 141.815 394.773 142.585 394.926 143.458C395.079 144.33 394.745 144.671 393.924 144.479C392.823 143.324 391.48 142.719 389.896 142.663C388.402 142.478 386.892 142.521 385.365 142.791C381.003 143.565 376.454 145.834 371.717 149.598C366.981 153.363 362.875 157.521 359.401 162.074C358.284 163.396 356.819 165.624 355.007 168.758C353.285 171.762 351.775 175.011 350.476 178.503C349.177 181.995 348.756 185.05 349.215 187.668C349.464 189.086 350.066 190.272 351.02 191.228C351.59 191.914 352.366 192.17 353.347 191.996C354.874 191.725 356.747 190.549 358.969 188.468C361.299 186.368 363.626 183.931 365.95 181.157C368.256 178.273 370.308 175.548 372.106 172.979C374.013 170.392 375.372 168.52 376.181 167.364C376.631 166.722 377.475 165.447 378.715 163.541C380.045 161.505 381.464 159.341 382.974 157.049C384.483 154.757 385.822 152.776 386.991 151.107C388.269 149.418 389.126 148.535 389.563 148.458C390.108 148.361 391.009 148.37 392.266 148.484C393.612 148.47 394.77 148.659 395.738 149.05C396.705 149.44 396.993 150.12 396.601 151.09C394.493 155.737 392.968 160.507 392.026 165.397C391.175 170.16 390.815 173.879 390.946 176.555C390.914 177.01 390.936 177.456 391.012 177.893C391.07 178.22 391.137 178.602 391.213 179.038C391.978 183.401 393.887 185.312 396.94 184.77C398.576 184.48 400.584 183.112 402.966 180.665C405.348 178.218 407.717 175.38 410.074 172.15C412.431 168.92 414.535 165.848 416.385 162.933C418.325 159.889 419.616 157.636 420.259 156.172C420.529 155.787 420.827 155.565 421.155 155.507C421.591 155.43 422.011 155.58 422.414 155.959C422.799 156.228 422.875 156.664 422.644 157.268C421.788 159.444 420.455 162.098 418.643 165.232C416.831 168.365 414.747 171.546 412.39 174.776C410.033 178.006 407.663 180.844 405.282 183.291C404.055 184.633 402.419 185.879 400.372 187.03C398.344 188.289 396.24 189.112 394.059 189.499ZM444.186 180.946C442.332 181.275 440.62 181.128 439.05 180.507C437.498 179.995 436.249 178.642 435.303 176.448C434.765 175.306 434.391 174.135 434.181 172.935C433.607 169.663 433.87 166.355 434.971 163.011C436.161 159.538 437.671 156.289 439.502 153.265C441.314 150.132 442.875 147.494 444.186 145.349C444.905 144.322 445.686 143.002 446.527 141.391C447.478 139.76 447.829 138.236 447.581 136.818C447.428 135.945 446.848 135.205 445.842 134.596C444.817 133.878 443.131 133.558 440.783 133.637C439.437 133.651 438.154 133.71 436.936 133.814C435.807 133.789 434.643 133.883 433.443 134.096C431.117 138.782 428.854 143.513 426.656 148.29C424.548 152.937 422.212 157.569 419.648 162.185C419.019 163.084 418.431 163.582 417.886 163.679C417.232 163.795 416.847 163.526 416.733 162.871C416.618 162.217 416.83 161.504 417.37 160.734C421.996 152.49 425.718 143.901 428.537 134.966C427.991 135.062 427.174 135.208 426.083 135.401C424.974 135.485 424.082 135.531 423.409 135.538C422.607 135.455 421.95 135.234 421.438 134.875C420.925 134.516 420.63 134.119 420.554 133.682C420.439 133.028 420.645 132.598 421.171 132.392C422.512 131.704 423.924 130.779 425.406 129.616C426.889 128.454 428.215 127.037 429.384 125.368C430.643 123.57 431.783 121.737 432.805 119.869C433.807 117.892 434.614 116.399 435.224 115.391C435.891 114.71 436.661 114.292 437.534 114.138C438.079 114.041 438.598 114.118 439.092 114.367C439.694 114.598 440.053 115.041 440.168 115.695C440.302 116.459 440.147 117.498 439.703 118.814C438.989 120.515 438.195 122.399 437.321 124.466C436.555 126.514 435.816 128.389 435.102 130.09C437.084 129.851 439.066 129.612 441.048 129.373C443.03 129.134 445.056 128.83 447.128 128.463C448.219 128.27 449.254 128.086 450.236 127.912C451.307 127.609 452.388 127.361 453.478 127.168C456.75 126.588 458.529 127.116 458.815 128.752C459.007 129.843 458.646 131.313 457.733 133.162C456.911 134.882 455.844 136.815 454.533 138.959C451.572 143.871 449.194 148.904 447.399 154.058C445.604 159.213 444.49 163.122 444.058 165.785C443.645 168.558 443.553 170.599 443.782 171.907C444.241 174.525 445.506 175.651 447.578 175.283C449.432 174.954 451.505 173.631 453.796 171.312C456.197 168.974 458.586 166.245 460.962 163.124C463.319 159.895 465.423 156.822 467.273 153.907C469.103 150.883 470.395 148.63 471.147 147.147C471.308 146.781 471.606 146.559 472.042 146.482C472.478 146.405 472.898 146.555 473.302 146.933C473.686 147.203 473.763 147.639 473.531 148.242C472.657 150.309 471.323 152.964 469.531 156.206C467.719 159.339 465.634 162.521 463.277 165.75C460.92 168.98 458.551 171.819 456.169 174.265C454.943 175.608 453.152 176.938 450.797 178.255C448.571 179.662 446.367 180.559 444.186 180.946ZM481.985 173.904C480.022 174.253 478.147 174.135 476.358 173.553C474.679 172.951 473.247 171.518 472.063 169.253C471.896 168.946 471.73 168.638 471.564 168.33C471.506 168.003 471.439 167.621 471.363 167.184C470.98 165.003 470.993 162.189 471.401 158.742C471.809 155.296 472.453 151.92 473.336 148.614C472.834 149.603 472.262 150.829 471.619 152.293C470.957 153.648 469.981 155.452 468.689 157.705C468.33 158.219 467.877 158.524 467.332 158.621C466.569 158.756 466.111 158.387 465.958 157.515C465.843 156.86 465.965 156.276 466.325 155.763C468.529 151.66 470.473 147.997 472.157 144.775C473.949 141.532 475.219 138.833 475.965 136.676C475.927 136.458 476.139 135.746 476.602 134.539C477.046 133.223 477.631 131.432 478.359 129.166C477.505 129.43 476.761 129.674 476.126 129.899C475.581 129.996 475.09 130.083 474.654 130.161C473.891 130.296 473.179 130.085 472.519 129.527C471.859 128.969 471.661 128.161 471.925 127.102C472.203 125.478 473.249 124.392 475.065 123.846C476.88 123.299 478.487 122.845 479.886 122.484C479.956 122.247 480.155 122.099 480.482 122.041C481.37 119.409 482.213 116.842 483.011 114.338C483.809 111.835 484.456 109.752 484.951 108.09C485.556 106.408 485.849 105.512 485.829 105.403C487.398 101.526 488.414 98.984 488.877 97.7771C489.321 96.4612 490.069 95.5975 491.121 95.186C492.302 94.8642 493.565 94.6963 494.912 94.6824C496.368 94.6491 497.381 94.9756 497.951 95.6618C498.354 96.0401 498.613 96.5565 498.728 97.2109C498.9 98.1926 498.854 99.213 498.59 100.272C498.307 101.222 497.995 102.008 497.655 102.631C497.352 103.472 496.848 104.124 496.142 104.586C495.526 104.921 495.041 105.681 494.687 106.869C493.96 109.135 493.153 111.584 492.265 114.215C491.377 116.847 490.416 119.38 489.381 121.813L491.315 121.301C493.893 120.619 496.299 119.911 498.531 119.177C500.873 118.425 503.58 117.832 506.652 117.4C507.197 117.303 507.762 117.315 508.345 117.437C509.018 117.43 509.384 117.59 509.441 117.917C509.518 118.354 508.205 119.205 505.504 120.471C504.49 121.101 502.177 122.017 498.566 123.22C495.044 124.295 491.413 125.389 487.673 126.502C486.946 128.768 486.27 130.687 485.647 132.26C485.004 133.723 484.576 134.811 484.364 135.524C482.844 140.967 481.467 145.935 480.231 150.428C479.085 154.793 478.632 158.304 478.873 160.96C478.84 161.416 478.862 161.862 478.939 162.298C478.996 162.625 479.063 163.007 479.139 163.443C479.904 167.806 481.704 169.737 484.539 169.234C486.284 168.924 488.357 167.601 490.758 165.263C493.139 162.816 495.509 159.978 497.866 156.748C500.204 153.409 502.298 150.282 504.148 147.367C506.088 144.324 507.379 142.07 508.022 140.607C508.292 140.222 508.59 140 508.917 139.942C509.353 139.864 509.709 139.97 509.985 140.259C510.369 140.528 510.5 140.955 510.378 141.539C509.721 143.567 508.442 146.212 506.541 149.473C504.729 152.607 502.599 155.852 500.153 159.21C497.796 162.44 495.426 165.278 493.044 167.725C491.818 169.068 490.181 170.314 488.134 171.464C486.216 172.704 484.166 173.518 481.985 173.904Z" fill="white" fill-opacity="0.2"/>
<g filter="url(#filter10_d_863_131)">
<path d="M271.734 245.342C299.372 228.507 316.547 223.446 350.122 221.865C364.466 222.738 338.012 250.437 367.297 238.034C396.583 225.63 402.087 221.865 421.244 200.824" stroke="#FF00B8" stroke-width="2.34707" stroke-linecap="round"/>
</g>
<g filter="url(#filter11_d_863_131)">
<path d="M400.773 207.832L421.213 200.594C421.584 200.463 421.941 200.822 421.81 201.195L414.614 221.754" stroke="#FF00B8" stroke-width="2.34707" stroke-linecap="round"/>
</g>
<g filter="url(#filter12_d_863_131)">
<path d="M402.086 206.945L422.526 199.707C422.896 199.576 423.253 199.935 423.123 200.308L415.927 220.867" stroke="white" stroke-opacity="0.2" stroke-width="2.34707" stroke-linecap="round" shape-rendering="crispEdges"/>
</g>
<g filter="url(#filter13_d_863_131)">
<path d="M272.621 244.682C299.811 228.936 316.707 224.202 349.739 222.723C363.851 223.539 337.825 249.447 366.636 237.846C395.447 226.245 400.862 222.723 419.709 203.043" stroke="white" stroke-opacity="0.2" stroke-width="2.34707" stroke-linecap="round" shape-rendering="crispEdges"/>
</g>
<g filter="url(#filter14_d_863_131)">
<path d="M429.794 175.413C429.794 228.533 386.984 271.588 334.184 271.588C281.384 271.588 238.575 228.533 238.575 175.413C238.575 122.294 281.384 79.2389 334.184 79.2389C386.984 79.2389 429.794 122.294 429.794 175.413Z" stroke="white" stroke-width="1.24333" shape-rendering="crispEdges"/>
</g>
<defs>
<filter id="filter0_d_863_131" x="335.174" y="32.213" width="142.683" height="151.82" filterUnits="userSpaceOnUse" color-interpolation-filters="sRGB">
<feFlood flood-opacity="0" result="BackgroundImageFix"/>
<feColorMatrix in="SourceAlpha" type="matrix" values="0 0 0 0 0 0 0 0 0 0 0 0 0 0 0 0 0 0 127 0" result="hardAlpha"/>
<feOffset/>
<feGaussianBlur stdDeviation="3.10833"/>
<feComposite in2="hardAlpha" operator="out"/>
<feColorMatrix type="matrix" values="0 0 0 0 1 0 0 0 0 0.960784 0 0 0 0 0 0 0 0 1 0"/>
<feBlend mode="normal" in2="BackgroundImageFix" result="effect1_dropShadow_863_131"/>
<feBlend mode="normal" in="SourceGraphic" in2="effect1_dropShadow_863_131" result="shape"/>
</filter>
<filter id="filter1_d_863_131" x="191.682" y="167.861" width="142.683" height="151.82" filterUnits="userSpaceOnUse" color-interpolation-filters="sRGB">
<feFlood flood-opacity="0" result="BackgroundImageFix"/>
<feColorMatrix in="SourceAlpha" type="matrix" values="0 0 0 0 0 0 0 0 0 0 0 0 0 0 0 0 0 0 127 0" result="hardAlpha"/>
<feOffset/>
<feGaussianBlur stdDeviation="3.10833"/>
<feComposite in2="hardAlpha" operator="out"/>
<feColorMatrix type="matrix" values="0 0 0 0 1 0 0 0 0 0.960784 0 0 0 0 0 0 0 0 1 0"/>
<feBlend mode="normal" in2="BackgroundImageFix" result="effect1_dropShadow_863_131"/>
<feBlend mode="normal" in="SourceGraphic" in2="effect1_dropShadow_863_131" result="shape"/>
</filter>
<filter id="filter2_d_863_131" x="326.693" y="176.881" width="151.117" height="143.312" filterUnits="userSpaceOnUse" color-interpolation-filters="sRGB">
<feFlood flood-opacity="0" result="BackgroundImageFix"/>
<feColorMatrix in="SourceAlpha" type="matrix" values="0 0 0 0 0 0 0 0 0 0 0 0 0 0 0 0 0 0 127 0" result="hardAlpha"/>
<feOffset/>
<feGaussianBlur stdDeviation="3.10833"/>
<feComposite in2="hardAlpha" operator="out"/>
<feColorMatrix type="matrix" values="0 0 0 0 1 0 0 0 0 0.960784 0 0 0 0 0 0 0 0 1 0"/>
<feBlend mode="normal" in2="BackgroundImageFix" result="effect1_dropShadow_863_131"/>
<feBlend mode="normal" in="SourceGraphic" in2="effect1_dropShadow_863_131" result="shape"/>
</filter>
<filter id="filter3_d_863_131" x="192.229" y="32.1818" width="151.117" height="143.312" filterUnits="userSpaceOnUse" color-interpolation-filters="sRGB">
<feFlood flood-opacity="0" result="BackgroundImageFix"/>
<feColorMatrix in="SourceAlpha" type="matrix" values="0 0 0 0 0 0 0 0 0 0 0 0 0 0 0 0 0 0 127 0" result="hardAlpha"/>
<feOffset/>
<feGaussianBlur stdDeviation="3.10833"/>
<feComposite in2="hardAlpha" operator="out"/>
<feColorMatrix type="matrix" values="0 0 0 0 1 0 0 0 0 0.960784 0 0 0 0 0 0 0 0 1 0"/>
<feBlend mode="normal" in2="BackgroundImageFix" result="effect1_dropShadow_863_131"/>
<feBlend mode="normal" in="SourceGraphic" in2="effect1_dropShadow_863_131" result="shape"/>
</filter>
<filter id="filter4_d_863_131" x="245.858" y="45.3302" width="182.789" height="52.0779" filterUnits="userSpaceOnUse" color-interpolation-filters="sRGB">
<feFlood flood-opacity="0" result="BackgroundImageFix"/>
<feColorMatrix in="SourceAlpha" type="matrix" values="0 0 0 0 0 0 0 0 0 0 0 0 0 0 0 0 0 0 127 0" result="hardAlpha"/>
<feOffset/>
<feGaussianBlur stdDeviation="3.10833"/>
<feComposite in2="hardAlpha" operator="out"/>
<feColorMatrix type="matrix" values="0 0 0 0 1 0 0 0 0 0.960784 0 0 0 0 0 0 0 0 1 0"/>
<feBlend mode="normal" in2="BackgroundImageFix" result="effect1_dropShadow_863_131"/>
<feBlend mode="normal" in="SourceGraphic" in2="effect1_dropShadow_863_131" result="shape"/>
</filter>
<filter id="filter5_d_863_131" x="240.315" y="254.576" width="182.746" height="52.0779" filterUnits="userSpaceOnUse" color-interpolation-filters="sRGB">
<feFlood flood-opacity="0" result="BackgroundImageFix"/>
<feColorMatrix in="SourceAlpha" type="matrix" values="0 0 0 0 0 0 0 0 0 0 0 0 0 0 0 0 0 0 127 0" result="hardAlpha"/>
<feOffset/>
<feGaussianBlur stdDeviation="3.10833"/>
<feComposite in2="hardAlpha" operator="out"/>
<feColorMatrix type="matrix" values="0 0 0 0 1 0 0 0 0 0.960784 0 0 0 0 0 0 0 0 1 0"/>
<feBlend mode="normal" in2="BackgroundImageFix" result="effect1_dropShadow_863_131"/>
<feBlend mode="normal" in="SourceGraphic" in2="effect1_dropShadow_863_131" result="shape"/>
</filter>
<filter id="filter6_d_863_131" x="412.651" y="87.006" width="51.9607" height="183.898" filterUnits="userSpaceOnUse" color-interpolation-filters="sRGB">
<feFlood flood-opacity="0" result="BackgroundImageFix"/>
<feColorMatrix in="SourceAlpha" type="matrix" values="0 0 0 0 0 0 0 0 0 0 0 0 0 0 0 0 0 0 127 0" result="hardAlpha"/>
<feOffset/>
<feGaussianBlur stdDeviation="3.10833"/>
<feComposite in2="hardAlpha" operator="out"/>
<feColorMatrix type="matrix" values="0 0 0 0 1 0 0 0 0 0.960784 0 0 0 0 0 0 0 0 1 0"/>
<feBlend mode="normal" in2="BackgroundImageFix" result="effect1_dropShadow_863_131"/>
<feBlend mode="normal" in="SourceGraphic" in2="effect1_dropShadow_863_131" result="shape"/>
</filter>
<filter id="filter7_d_863_131" x="204.99" y="81.0802" width="51.9607" height="183.898" filterUnits="userSpaceOnUse" color-interpolation-filters="sRGB">
<feFlood flood-opacity="0" result="BackgroundImageFix"/>
<feColorMatrix in="SourceAlpha" type="matrix" values="0 0 0 0 0 0 0 0 0 0 0 0 0 0 0 0 0 0 127 0" result="hardAlpha"/>
<feOffset/>
<feGaussianBlur stdDeviation="3.10833"/>
<feComposite in2="hardAlpha" operator="out"/>
<feColorMatrix type="matrix" values="0 0 0 0 1 0 0 0 0 0.960784 0 0 0 0 0 0 0 0 1 0"/>
<feBlend mode="normal" in2="BackgroundImageFix" result="effect1_dropShadow_863_131"/>
<feBlend mode="normal" in="SourceGraphic" in2="effect1_dropShadow_863_131" result="shape"/>
</filter>
<filter id="filter8_d_863_131" x="128.59" y="40.6271" width="419.707" height="232.144" filterUnits="userSpaceOnUse" color-interpolation-filters="sRGB">
<feFlood flood-opacity="0" result="BackgroundImageFix"/>
<feColorMatrix in="SourceAlpha" type="matrix" values="0 0 0 0 0 0 0 0 0 0 0 0 0 0 0 0 0 0 127 0" result="hardAlpha"/>
<feOffset dy="3.32225"/>
<feGaussianBlur stdDeviation="16.6113"/>
<feComposite in2="hardAlpha" operator="out"/>
<feColorMatrix type="matrix" values="0 0 0 0 0.741176 0 0 0 0 1 0 0 0 0 0.00784314 0 0 0 1 0"/>
<feBlend mode="normal" in2="BackgroundImageFix" result="effect1_dropShadow_863_131"/>
<feBlend mode="normal" in="SourceGraphic" in2="effect1_dropShadow_863_131" result="shape"/>
</filter>
<filter id="filter9_d_863_131" x="132.352" y="41.8341" width="412.636" height="228.832" filterUnits="userSpaceOnUse" color-interpolation-filters="sRGB">
<feFlood flood-opacity="0" result="BackgroundImageFix"/>
<feColorMatrix in="SourceAlpha" type="matrix" values="0 0 0 0 0 0 0 0 0 0 0 0 0 0 0 0 0 0 127 0" result="hardAlpha"/>
<feOffset dy="3.32225"/>
<feGaussianBlur stdDeviation="16.6113"/>
<feComposite in2="hardAlpha" operator="out"/>
<feColorMatrix type="matrix" values="0 0 0 0 1 0 0 0 0 0 0 0 0 0 0.631373 0 0 0 1 0"/>
<feBlend mode="normal" in2="BackgroundImageFix" result="effect1_dropShadow_863_131"/>
<feBlend mode="normal" in="SourceGraphic" in2="effect1_dropShadow_863_131" result="shape"/>
</filter>
<filter id="filter10_d_863_131" x="251.786" y="182.753" width="189.409" height="84.4163" filterUnits="userSpaceOnUse" color-interpolation-filters="sRGB">
<feFlood flood-opacity="0" result="BackgroundImageFix"/>
<feColorMatrix in="SourceAlpha" type="matrix" values="0 0 0 0 0 0 0 0 0 0 0 0 0 0 0 0 0 0 127 0" result="hardAlpha"/>
<feOffset dy="1.87765"/>
<feGaussianBlur stdDeviation="9.38826"/>
<feComposite in2="hardAlpha" operator="out"/>
<feColorMatrix type="matrix" values="0 0 0 0 1 0 0 0 0 0 0 0 0 0 0.721569 0 0 0 1 0"/>
<feBlend mode="normal" in2="BackgroundImageFix" result="effect1_dropShadow_863_131"/>
<feBlend mode="normal" in="SourceGraphic" in2="effect1_dropShadow_863_131" result="shape"/>
</filter>
<filter id="filter11_d_863_131" x="380.825" y="182.488" width="60.9632" height="61.096" filterUnits="userSpaceOnUse" color-interpolation-filters="sRGB">
<feFlood flood-opacity="0" result="BackgroundImageFix"/>
<feColorMatrix in="SourceAlpha" type="matrix" values="0 0 0 0 0 0 0 0 0 0 0 0 0 0 0 0 0 0 127 0" result="hardAlpha"/>
<feOffset dy="1.87765"/>
<feGaussianBlur stdDeviation="9.38826"/>
<feComposite in2="hardAlpha" operator="out"/>
<feColorMatrix type="matrix" values="0 0 0 0 1 0 0 0 0 0 0 0 0 0 0.721569 0 0 0 1 0"/>
<feBlend mode="normal" in2="BackgroundImageFix" result="effect1_dropShadow_863_131"/>
<feBlend mode="normal" in="SourceGraphic" in2="effect1_dropShadow_863_131" result="shape"/>
</filter>
<filter id="filter12_d_863_131" x="382.138" y="181.601" width="60.9632" height="61.096" filterUnits="userSpaceOnUse" color-interpolation-filters="sRGB">
<feFlood flood-opacity="0" result="BackgroundImageFix"/>
<feColorMatrix in="SourceAlpha" type="matrix" values="0 0 0 0 0 0 0 0 0 0 0 0 0 0 0 0 0 0 127 0" result="hardAlpha"/>
<feOffset dy="1.87765"/>
<feGaussianBlur stdDeviation="9.38826"/>
<feComposite in2="hardAlpha" operator="out"/>
<feColorMatrix type="matrix" values="0 0 0 0 1 0 0 0 0 0 0 0 0 0 0.721569 0 0 0 1 0"/>
<feBlend mode="normal" in2="BackgroundImageFix" result="effect1_dropShadow_863_131"/>
<feBlend mode="normal" in="SourceGraphic" in2="effect1_dropShadow_863_131" result="shape"/>
</filter>
<filter id="filter13_d_863_131" x="252.673" y="184.972" width="186.987" height="81.5374" filterUnits="userSpaceOnUse" color-interpolation-filters="sRGB">
<feFlood flood-opacity="0" result="BackgroundImageFix"/>
<feColorMatrix in="SourceAlpha" type="matrix" values="0 0 0 0 0 0 0 0 0 0 0 0 0 0 0 0 0 0 127 0" result="hardAlpha"/>
<feOffset dy="1.87765"/>
<feGaussianBlur stdDeviation="9.38826"/>
<feComposite in2="hardAlpha" operator="out"/>
<feColorMatrix type="matrix" values="0 0 0 0 1 0 0 0 0 0 0 0 0 0 0.721569 0 0 0 1 0"/>
<feBlend mode="normal" in2="BackgroundImageFix" result="effect1_dropShadow_863_131"/>
<feBlend mode="normal" in="SourceGraphic" in2="effect1_dropShadow_863_131" result="shape"/>
</filter>
<filter id="filter14_d_863_131" x="227.953" y="68.6172" width="212.461" height="213.594" filterUnits="userSpaceOnUse" color-interpolation-filters="sRGB">
<feFlood flood-opacity="0" result="BackgroundImageFix"/>
<feColorMatrix in="SourceAlpha" type="matrix" values="0 0 0 0 0 0 0 0 0 0 0 0 0 0 0 0 0 0 127 0" result="hardAlpha"/>
<feOffset/>
<feGaussianBlur stdDeviation="5"/>
<feComposite in2="hardAlpha" operator="out"/>
<feColorMatrix type="matrix" values="0 0 0 0 1 0 0 0 0 1 0 0 0 0 1 0 0 0 1 0"/>
<feBlend mode="normal" in2="BackgroundImageFix" result="effect1_dropShadow_863_131"/>
<feBlend mode="normal" in="SourceGraphic" in2="effect1_dropShadow_863_131" result="shape"/>
</filter>
<linearGradient id="paint0_linear_863_131" x1="334.358" y1="31.1797" x2="334.358" y2="319.885" gradientUnits="userSpaceOnUse">
<stop stop-color="#F7F16D"/>
<stop offset="1" stop-color="#C61987" stop-opacity="0"/>
</linearGradient>
</defs>
</svg>
